<svg version="1.1" viewBox="0 0 303.67 344.67" width="20" height="20" xmlns="http://www.w3.org/2000/svg">
<style>path { fill: #f6f6f6; }</style>
<path d="m25.402 344.19c-12.249-1.5962-22.14-10.968-24.542-23.252-0.7186-3.6753-0.7186-192.77 0-196.44 1.4844-7.592 4.6825-12.578 11.799-18.394 2.3222-1.898 30.346-25.186 62.275-51.751 31.929-26.565 58.881-48.8 59.894-49.41 3.0352-1.8299 7.0563-3.409 10.486-4.1182 4.6048-0.95203 11.322-0.72544 15.495 0.52273 3.4803 1.0409 7.7224 3.0987 10.185 4.9408 0.97862 0.73191 28.129 23.254 60.333 50.049 32.205 26.795 59.701 49.653 61.104 50.794 4.728 3.8492 7.7272 8.0949 9.6591 13.674l1.1247 3.2478 0.0867 97.589c0.095 106.98 0.23161 99.424-1.8944 104.73-3.4217 8.5453-10.34 14.536-19.948 17.276l-2.5778 0.73493-125.67 0.043c-69.117 0.0237-126.63-0.0829-127.81-0.2367zm253.15-20.692c2.0607-1.095 3.2579-2.333 4.1397-4.2811 0.61385-1.3561 0.6797-2.1796 0.68632-8.5833l7e-3 -7.0833h-9.4192l-1.3337 1.2049c-0.73355 0.66272-2.1767 1.6002-3.2071 2.0833-1.6326 0.76551-2.3017 0.87839-5.2067 0.87839-2.9189 0-3.5703-0.11107-5.2394-0.89336-8.5658-4.0148-10.344-15.227-3.4182-21.557 2.5688-2.3477 4.8495-3.1874 8.6575-3.1874 3.6131 0 5.9866 0.80838 8.2668 2.8156l1.5021 1.3222h9.3977v-20h-49.667v14.94c0 16.799-0.0635 17.353-2.2688 19.799-0.67716 0.75118-1.9812 1.7158-2.8979 2.1436l-1.6667 0.77777-39.131 6e-3 -2.1114 1.5981c-2.8051 2.1231-5.1278 2.8398-8.6829 2.6789-2.1143-0.0957-3.1983-0.33576-4.7411-1.05-2.6202-1.2131-5.2012-3.7803-6.3929-6.3588-0.84278-1.8237-0.94043-2.3984-0.94043-5.535 0-3.0822 0.10386-3.7188 0.87002-5.3333 2.3966-5.0502 8.0026-8.1967 13.402-7.5221 2.1472 0.26827 5.3144 1.6996 6.962 3.1462l1.1874 1.0426h29.079l0.0146-15.417c0.0111-11.672 0.11855-15.707 0.44241-16.613 0.66905-1.8717 2.0512-3.4429 3.9582-4.4995l1.7514-0.97043 60.833-0.1802v-20.653h-58.665l-1.251 1.1235c-0.68802 0.61791-2.076 1.5549-3.0843 2.0822-1.6958 0.88675-2.1089 0.95878-5.5053 0.95987-3.4699 1e-3 -3.7931-0.0584-5.8742-1.0821-2.6635-1.3102-4.66-3.3806-5.9799-6.2011-3.5893-7.6701 0.98451-16.453 9.4825-18.209 3.4201-0.70659 7.0425 0.18724 10.211 2.5195l2.0018 1.474h58.665v-43.667h-24.615l-0.1243 10.083c-0.10614 8.6097-0.20722 10.264-0.6917 11.321-0.87309 1.9043-2.5607 3.6223-4.3997 4.4786l-1.6691 0.77725-65.5 6e-3v45.425l1.3632 1.4789c2.6628 2.8888 4.0123 7.3684 3.3509 11.123-1.2729 7.2265-7.1881 11.987-14.378 11.57-5.6557-0.3274-10.388-4.0418-12.17-9.5516-0.42735-1.3217-0.54184-2.538-0.43979-4.6724 0.16403-3.4308 1.3778-6.4174 3.5782-8.8046l1.3618-1.4769v-45.092h-34.667v45.536l1.1968 1.1487c2.6903 2.5821 4.2752 7.7429 3.5597 11.591-0.56591 3.043-1.9392 5.5073-4.2994 7.7152-2.905 2.7175-4.9517 3.4884-9.2904 3.4994-3.0654 8e-3 -3.514-0.0771-5.5802-1.0551-2.908-1.3764-5.3107-3.7788-6.6887-6.6879-0.98671-2.083-1.0644-2.5023-1.0644-5.7469 0-3.2247 0.0815-3.672 1.0359-5.6861 0.56977-1.2024 1.6573-2.8393 2.4167-3.6376l1.3807-1.4514v-45.225h-32.607c-36.336 0-34.498 0.11388-36.976-2.2915-2.516-2.4417-2.5576-2.6505-2.7933-14.042-0.11572-5.5917-0.22822-10.204-0.25-10.25-0.02178-0.0458-5.4396-0.0833-12.04-0.0833h-12v43.667h59.079l1.1396-1.0006c1.6231-1.4251 3.9794-2.5402 6.3554-3.0077 5.4597-1.0741 11.617 2.1132 14.03 7.263 0.80234 1.712 0.89606 2.2954 0.89606 5.5786 0 3.3546-0.0807 3.8311-0.94836 5.5992-1.2101 2.4659-3.6533 4.909-6.1192 6.1192-1.768 0.86766-2.2445 0.94836-5.5992 0.94836-3.3142 0-3.8439-0.087-5.5101-0.90538-1.0139-0.49795-2.4628-1.4354-3.2197-2.0833l-1.3762-1.178h-58.727v20.653l61.833 0.18 1.3979 0.74721c0.76885 0.41096 1.9217 1.2865 2.5619 1.9457 2.1754 2.2399 2.2069 2.5186 2.2069 19.533v15.274h27.405l1.6564-1.3189c2.5073-1.9963 4.8793-2.7989 8.2723-2.7989 4.0338 0 6.1607 0.88414 9.0305 3.754 2.8974 2.8974 3.7487 4.9723 3.7803 9.2144 0.0212 2.8398-0.0514 3.1669-1.2349 5.5616-1.4411 2.916-3.4034 4.8705-6.2426 6.2178-1.6145 0.76616-2.2511 0.87002-5.3333 0.87002-3.085 0-3.7221-0.10414-5.3733-0.87839-1.0303-0.48311-2.4735-1.4206-3.2071-2.0833l-1.3337-1.205-37.919-6e-3 -1.6667-0.77777c-0.91667-0.42778-2.2207-1.3924-2.8979-2.1436-2.2053-2.4462-2.2688-3.0003-2.2688-19.799v-14.94h-50.667v20h9.4313l1.4403-1.1802c0.79216-0.64912 2.3076-1.5851 3.3677-2.0799 1.6662-0.77775 2.3566-0.90016 5.094-0.90313 2.8663-3e-3 3.3722 0.0954 5.3333 1.0385 3.1473 1.5135 4.7785 3.0835 6.2073 5.9746 4.1841 8.466-1.2264 18.062-10.557 18.724-3.7949 0.26936-8.0188-1.2191-10.154-3.578-0.54587-0.60319-1.0324-0.66286-5.4045-0.66286h-4.8046l0.10624 7.444 0.10625 7.444 1.0079 1.629c1.2013 1.9417 3.1768 3.412 5.3829 4.0066 1.3094 0.35288 24.741 0.42213 125.78 0.37171l124.17-0.062zm-151-24.094c1.5528-0.6488 2.4938-2.2738 2.4954-4.3093 1e-3 -1.4411-0.14347-1.7673-1.2929-2.9167-1.14-1.14-1.4827-1.2941-2.8773-1.2941-4.881 0-6.5484 5.8148-2.3938 8.348 1.2677 0.77296 2.5052 0.82529 4.0686 0.17206zm52.069-0.0767c4.2318-2.0081 2.6003-8.4468-2.1391-8.4421-2.3834 2e-3 -4.4352 2.1084-4.432 4.5491 2e-3 1.2764 1.0844 2.9751 2.4124 3.7848 1.3276 0.80942 2.6106 0.84281 4.1587 0.10821zm-137.3-0.7363c2.217-1.5787 2.5751-4.7248 0.75897-6.6689-2.4896-2.6651-6.7596-1.5391-7.7224 2.0365-0.3083 1.1449-0.25352 1.5203 0.41583 2.8492 1.3505 2.6811 4.1976 3.4566 6.5476 1.7832zm223.48 0.50258c1.7287-0.7366 2.6504-1.979 2.8057-3.7821 0.23789-2.7613-1.6682-4.872-4.3998-4.872-4.9014 0-6.1811 6.6341-1.6667 8.6406 1.288 0.57245 1.9426 0.57516 3.2607 0.0135zm-138.19-44.766c1.5818-0.75061 2.4249-2.2213 2.4264-4.2326 1e-3 -1.4411-0.14347-1.7673-1.2929-2.9167s-1.4756-1.294-2.9167-1.2929c-4.873 4e-3 -6.5114 5.8121-2.3544 8.3468 1.3072 0.79707 2.5962 0.82677 4.1375 0.0953zm51.955 0.0212c4.1419-1.9655 2.7418-8.467-1.8227-8.4633-4.8285 4e-3 -6.4258 5.8131-2.2914 8.3339 1.3166 0.80277 2.6094 0.84342 4.1141 0.12938zm-88.215-30.74c2.1187-1.1363 2.8835-3.674 1.7972-5.9632-1.4587-3.074-5.9993-3.2653-7.7902-0.32817-2.3931 3.9248 1.9345 8.4679 5.9929 6.2914zm126.23-0.42636c1.7991-1.6806 2.2103-3.4798 1.2553-5.4922-1.9454-4.0998-8.4645-2.7474-8.4645 1.7559 0 3.0159 1.9354 4.915 4.7609 4.6716 1.0875-0.0937 1.8657-0.39093 2.4483-0.93522zm-100.54-71.677v-25.046l-1.3618-1.4774c-0.749-0.81257-1.8365-2.4794-2.4167-3.7039-0.97589-2.0599-1.0548-2.4885-1.0548-5.7265 0-3.1089 0.10092-3.7154 0.90299-5.4271 1.161-2.4777 4.1015-5.5555 6.368-6.6653 2.6067-1.2764 5.7585-1.7795 8.2478-1.3166 6.0351 1.1224 10.358 5.4313 11.37 11.333 0.70393 4.105-0.55142 8.3359-3.3836 11.404l-1.3389 1.4503v50.222h34.667v-50.098l-1.5228-1.628c-0.83754-0.8954-1.9225-2.486-2.411-3.5346-0.79106-1.698-0.88884-2.3077-0.89386-5.5732-5e-3 -3.4417 0.06-3.8052 1.0641-5.9251 1.9445-4.105 5.7058-6.8925 10.336-7.6597 8.8946-1.4739 17.088 6.8409 15.458 15.687-0.48834 2.6503-1.9177 5.5278-3.5004 7.0469l-1.1968 1.1487v50.536h54.956l0.10533-10.083 0.10532-10.083 0.99146-1.7901c1.0001-1.8057 2.037-2.7793 4.1752-3.9206 1.0902-0.58186 2.3303-0.62905 18.917-0.71975l17.75-0.0971v-22.175l-0.84798-1.7017c-0.75943-1.524-2.8813-3.3929-20.321-17.899-10.71-8.9084-19.547-16.197-19.636-16.197-0.0895 0-0.20742 5.2875-0.26199 11.75-0.10967 12.988-0.0694 12.731-2.3865 15.196-2.2026 2.3426-2.9733 2.542-10.296 2.6625l-6.5833 0.10839v18.581l1.5893 2.101c5.1408 6.7959 2.8274 16.276-4.85 19.874-1.688 0.79118-2.3063 0.89335-5.406 0.89335-3.1476 0-3.6887-0.0927-5.3747-0.921-2.926-1.4375-4.7704-3.2716-6.2012-6.1668-1.1835-2.3946-1.2561-2.7217-1.2349-5.5616 0.0272-3.6419 0.8425-6.0354 2.8219-8.2841l1.3222-1.5021v-14.305c0-15.988 0.0643-16.546 2.195-19.035 2.2713-2.6535 3.0526-2.8755 10.555-2.999l6.5833-0.10835-0.0168-13.558-0.0168-13.558-18.877-15.667c-10.382-8.6167-19-15.717-19.15-15.778-0.15018-0.06111-0.27305 4.1808-0.27305 9.4265v9.5376l1.3091 1.6562c3.6074 4.5637 3.7921 10.936 0.45674 15.757-3.945 5.7018-12.302 7.0793-18.199 2.9997-3.201-2.2147-5.2658-6.2072-5.307-10.261-0.0334-3.2928 0.77166-5.7378 2.7497-8.3511l1.663-2.1971-0.1728-33.45-4.8333-4.079c-2.7572-2.3269-5.7618-4.5477-6.9949-5.1701-2.0129-1.016-2.3912-1.0911-5.5-1.0911-4.4122 0-5.4932 0.54505-12.255 6.1789l-5.25 4.3741v33.674l1.1478 1.3409c4.4274 5.1724 4.053 13.18-0.82987 17.747-6.6329 6.2043-16.871 4.3243-20.778-3.8155-0.95056-1.9805-1.0399-2.4531-1.0399-5.5 0-2.9534 0.10647-3.5613 0.93409-5.3333 0.51375-1.1 1.4536-2.5337 2.0886-3.1861l1.1545-1.1861-0.0885-9.6002-0.0885-9.6002-37.156 30.906-0.0106 27.782 6.4167 0.10882c6.3711 0.10804 6.4291 0.11571 8.1681 1.0792 0.96329 0.53373 2.1316 1.4688 2.5962 2.078 1.7823 2.3367 1.819 2.707 1.819 18.357v14.488l1.176 1.3739c0.64679 0.75564 1.5833 2.2045 2.0812 3.2196 0.80942 1.6505 0.90543 2.2161 0.90733 5.3458 2e-3 3.1367-0.0947 3.7076-0.9307 5.5-1.2243 2.625-3.7916 5.2033-6.3656 6.3929-1.8236 0.84278-2.3983 0.94043-5.5349 0.94043-3.1949 0-3.6737-0.0851-5.4927-0.97685-5.1737-2.5362-8.2617-8.4326-7.254-13.851 0.43911-2.3612 1.7481-5.112 3.1031-6.5211l0.97687-1.0159v-19.135h-5.9406c-6.5887 0-8.0445-0.28863-10.131-2.0088-0.66069-0.5446-1.5898-1.7699-2.0647-2.7228l-0.86341-1.7326v-11.962c0-7.5421-0.11889-11.921-0.32174-11.851-0.55612 0.19205-38.103 31.379-39.402 32.729-2.1646 2.2475-2.2762 2.988-2.2762 15.109v10.774h16.773c18.822 0 19.154 0.0348 21.633 2.2688 0.75118 0.67715 1.7158 1.9812 2.1435 2.8978 0.70249 1.5054 0.77809 2.1374 0.78103 6.5303 0.0017 2.675 0.10168 7.1375 0.22197 9.9167l0.21871 5.053h54.896zm-24.747 2.7145c1.328-0.80969 2.4107-2.5083 2.4124-3.7848 2e-3 -1.4164-0.97867-3.2144-2.1387-3.9218-0.63208-0.38544-1.6503-0.62655-2.6492-0.62732-1.4411-1e-3 -1.7673 0.14347-2.9167 1.2929s-1.294 1.4756-1.2929 2.9167c0.0017 1.9854 0.8305 3.4596 2.3726 4.2192 1.5028 0.74033 2.8941 0.70899 4.2126-0.0949zm124.59-0.14309c1.8953-1.2418 2.5952-3.6713 1.6384-5.6875-0.78542-1.6551-2.2292-2.5018-4.269-2.5033-1.4411-1e-3 -1.7673 0.14347-2.9167 1.2929s-1.294 1.4756-1.2929 2.9167c2e-3 1.9794 0.82514 3.4502 2.3726 4.2371 1.3046 0.66337 3.2332 0.55292 4.4676-0.25584zm-89.269-34.415c1.5818-0.75062 2.4249-2.2213 2.4264-4.2326 1e-3 -1.4411-0.14347-1.7673-1.2929-2.9167s-1.4756-1.294-2.9167-1.2929c-4.873 4e-3 -6.5114 5.8121-2.3544 8.3468 1.3072 0.79707 2.5962 0.82677 4.1375 0.0953zm51.955 0.0212c4.1419-1.9655 2.7418-8.467-1.8227-8.4633-4.8285 4e-3 -6.4258 5.8131-2.2914 8.3339 1.3166 0.80277 2.6094 0.84342 4.1141 0.12938zm-51.871-41.293c3.1931-1.6512 3.1509-6.3807-0.0718-8.0472-2.753-1.4237-6.5851 0.9286-6.5851 4.0422 0 1.519 1.5615 3.7387 3 4.2646 0.96767 0.35374 2.7101 0.23006 3.6569-0.25956zm52.374-0.0212c0.549-0.2839 1.291-0.9964 1.6489-1.5833 1.3079-2.1451 0.50007-5.273-1.6489-6.3843-3.0111-1.5571-6.6936 0.6346-6.6936 3.9838 0 3.3492 3.6825 5.5409 6.6936 3.9838z"/>
</svg>
